<svg xmlns="http://www.w3.org/2000/svg" viewBox="0 0 130 170" width="130" height="170">
  <!-- Shadow layer — gleiche Form, 6px versetzt, cyan -->
  <path d="
    M 66 10
    L 74 46
    L 98 78
    L 94 106
    L 86 114
    L 86 136
    L 74 140
    L 66 136
    L 58 140
    L 46 136
    L 46 114
    L 38 106
    L 34 78
    L 58 46
    Z
  " fill="#00ffe0"/>

  <!-- Engine shadow glow -->
  <ellipse cx="49" cy="152" rx="10" ry="8" fill="#00ffe0"/>
  <ellipse cx="83" cy="152" rx="10" ry="8" fill="#00ffe0"/>

  <!-- Main black silhouette — exakt gleiche Form, nicht versetzt -->
  <path d="
    M 60 4
    L 68 40
    L 92 72
    L 88 100
    L 80 108
    L 80 130
    L 68 134
    L 60 130
    L 52 134
    L 40 130
    L 40 108
    L 32 100
    L 28 72
    L 52 40
    Z
  " fill="#000000"/>

  <!-- Engine nozzles — black -->
  <ellipse cx="43" cy="146" rx="10" ry="8" fill="#000000"/>
  <ellipse cx="77" cy="146" rx="10" ry="8" fill="#000000"/>
</svg>
