<svg xmlns="http://www.w3.org/2000/svg" viewBox="0 0 800 600" width="800" height="600">
  <defs>
    <radialGradient id="deepSpace" cx="50%" cy="50%" r="80%">
      <stop offset="0%" stop-color="#060612"/>
      <stop offset="100%" stop-color="#000005"/>
    </radialGradient>
    <filter id="starGlow">
      <feGaussianBlur stdDeviation="1.2" result="blur"/>
      <feMerge><feMergeNode in="blur"/><feMergeNode in="SourceGraphic"/></feMerge>
    </filter>
  </defs>

  <!-- Deep space background -->
  <rect width="800" height="600" fill="url(#deepSpace)"/>

  <!-- Nebula wisps -->
  <ellipse cx="200" cy="150" rx="180" ry="80" fill="#1a0030" opacity="0.15"/>
  <ellipse cx="600" cy="400" rx="200" ry="100" fill="#001a30" opacity="0.12"/>
  <ellipse cx="400" cy="300" rx="300" ry="120" fill="#0d001a" opacity="0.1"/>

  <!-- Stars — tiny -->
  <g fill="white" filter="url(#starGlow)">
    <circle cx="45" cy="23" r="0.6" opacity="0.9"/>
    <circle cx="132" cy="67" r="0.5" opacity="0.7"/>
    <circle cx="78" cy="145" r="0.7" opacity="0.8"/>
    <circle cx="220" cy="34" r="0.5" opacity="0.6"/>
    <circle cx="310" cy="88" r="0.6" opacity="0.9"/>
    <circle cx="456" cy="12" r="0.5" opacity="0.7"/>
    <circle cx="589" cy="55" r="0.7" opacity="0.8"/>
    <circle cx="670" cy="130" r="0.5" opacity="0.6"/>
    <circle cx="723" cy="44" r="0.6" opacity="0.9"/>
    <circle cx="150" cy="220" r="0.5" opacity="0.7"/>
    <circle cx="267" cy="178" r="0.6" opacity="0.8"/>
    <circle cx="390" cy="200" r="0.5" opacity="0.6"/>
    <circle cx="512" cy="165" r="0.7" opacity="0.9"/>
    <circle cx="634" cy="210" r="0.5" opacity="0.7"/>
    <circle cx="760" cy="190" r="0.6" opacity="0.8"/>
    <circle cx="88" cy="310" r="0.5" opacity="0.6"/>
    <circle cx="195" cy="355" r="0.7" opacity="0.9"/>
    <circle cx="340" cy="290" r="0.5" opacity="0.7"/>
    <circle cx="478" cy="340" r="0.6" opacity="0.8"/>
    <circle cx="600" cy="310" r="0.5" opacity="0.6"/>
    <circle cx="712" cy="280" r="0.7" opacity="0.9"/>
    <circle cx="55" cy="430" r="0.5" opacity="0.7"/>
    <circle cx="178" cy="478" r="0.6" opacity="0.8"/>
    <circle cx="295" cy="415" r="0.5" opacity="0.6"/>
    <circle cx="423" cy="460" r="0.7" opacity="0.9"/>
    <circle cx="545" cy="435" r="0.5" opacity="0.7"/>
    <circle cx="668" cy="490" r="0.6" opacity="0.8"/>
    <circle cx="775" cy="420" r="0.5" opacity="0.6"/>
    <circle cx="120" cy="555" r="0.7" opacity="0.9"/>
    <circle cx="250" cy="530" r="0.5" opacity="0.7"/>
    <circle cx="380" cy="570" r="0.6" opacity="0.8"/>
    <circle cx="500" cy="545" r="0.5" opacity="0.6"/>
    <circle cx="640" cy="560" r="0.7" opacity="0.9"/>
    <circle cx="750" cy="535" r="0.5" opacity="0.7"/>
  </g>

  <!-- Stars — medium bright -->
  <g fill="white" filter="url(#starGlow)">
    <circle cx="98" cy="55" r="1.2" opacity="0.9"/>
    <circle cx="345" cy="42" r="1.0" opacity="0.8"/>
    <circle cx="567" cy="98" r="1.3" opacity="0.95"/>
    <circle cx="712" cy="70" r="1.0" opacity="0.85"/>
    <circle cx="180" cy="260" r="1.2" opacity="0.9"/>
    <circle cx="430" cy="130" r="1.1" opacity="0.8"/>
    <circle cx="650" cy="360" r="1.2" opacity="0.9"/>
    <circle cx="300" cy="500" r="1.0" opacity="0.85"/>
    <circle cx="520" cy="480" r="1.3" opacity="0.95"/>
  </g>

  <!-- Stars — bright with cross sparkle -->
  <g filter="url(#starGlow)">
    <g transform="translate(230,90)">
      <circle r="1.8" fill="white" opacity="0.95"/>
      <line x1="-5" y1="0" x2="5" y2="0" stroke="white" stroke-width="0.4" opacity="0.5"/>
      <line x1="0" y1="-5" x2="0" y2="5" stroke="white" stroke-width="0.4" opacity="0.5"/>
    </g>
    <g transform="translate(620,155)">
      <circle r="2" fill="#e8f0ff" opacity="0.95"/>
      <line x1="-6" y1="0" x2="6" y2="0" stroke="#e8f0ff" stroke-width="0.5" opacity="0.4"/>
      <line x1="0" y1="-6" x2="0" y2="6" stroke="#e8f0ff" stroke-width="0.5" opacity="0.4"/>
    </g>
    <g transform="translate(70,390)">
      <circle r="1.6" fill="#fff0e8" opacity="0.9"/>
      <line x1="-5" y1="0" x2="5" y2="0" stroke="#fff0e8" stroke-width="0.4" opacity="0.4"/>
      <line x1="0" y1="-5" x2="0" y2="5" stroke="#fff0e8" stroke-width="0.4" opacity="0.4"/>
    </g>
    <g transform="translate(740,320)">
      <circle r="1.8" fill="white" opacity="0.95"/>
      <line x1="-5" y1="0" x2="5" y2="0" stroke="white" stroke-width="0.4" opacity="0.5"/>
      <line x1="0" y1="-5" x2="0" y2="5" stroke="white" stroke-width="0.4" opacity="0.5"/>
    </g>
  </g>
</svg>
