<svg xmlns="http://www.w3.org/2000/svg" viewBox="0 0 800 600" width="800" height="600">
  <!-- Weißer Hintergrund -->
  <rect width="800" height="600" fill="#ffffff"/>

  <!-- Sterne — kleine schwarze Punkte -->
  <g fill="#000000" opacity="0.15">
    <circle cx="42"  cy="18"  r="2"/>
    <circle cx="128" cy="55"  r="1.5"/>
    <circle cx="89"  cy="140" r="2.5"/>
    <circle cx="215" cy="28"  r="1.5"/>
    <circle cx="310" cy="77"  r="2"/>
    <circle cx="456" cy="12"  r="1.5"/>
    <circle cx="589" cy="55"  r="2.5"/>
    <circle cx="670" cy="130" r="1.5"/>
    <circle cx="723" cy="44"  r="2"/>
    <circle cx="150" cy="220" r="1.5"/>
    <circle cx="267" cy="178" r="2"/>
    <circle cx="390" cy="200" r="1.5"/>
    <circle cx="512" cy="165" r="2.5"/>
    <circle cx="634" cy="210" r="1.5"/>
    <circle cx="760" cy="190" r="2"/>
    <circle cx="88"  cy="310" r="1.5"/>
    <circle cx="195" cy="355" r="2.5"/>
    <circle cx="340" cy="290" r="1.5"/>
    <circle cx="478" cy="340" r="2"/>
    <circle cx="600" cy="310" r="1.5"/>
    <circle cx="712" cy="280" r="2.5"/>
    <circle cx="55"  cy="430" r="1.5"/>
    <circle cx="178" cy="478" r="2"/>
    <circle cx="295" cy="415" r="1.5"/>
    <circle cx="423" cy="460" r="2.5"/>
    <circle cx="545" cy="435" r="1.5"/>
    <circle cx="668" cy="490" r="2"/>
    <circle cx="775" cy="420" r="1.5"/>
    <circle cx="120" cy="555" r="2.5"/>
    <circle cx="380" cy="570" r="2"/>
    <circle cx="640" cy="560" r="1.5"/>
    <circle cx="750" cy="535" r="2"/>
  </g>

  <!-- Helle Sterne — etwas deutlicher -->
  <g fill="#000000" opacity="0.4">
    <circle cx="230" cy="94"  r="3"/>
    <circle cx="620" cy="159" r="3.5"/>
    <circle cx="68"  cy="392" r="2.5"/>
    <circle cx="743" cy="318" r="3"/>
    <circle cx="380" cy="520" r="2.5"/>
  </g>
</svg>
